<svg width="68" height="52" viewBox="0 0 68 52" fill="none" xmlns="http://www.w3.org/2000/svg">
<path d="M-2.15173e-05 51.6335V36.2926C-2.15173e-05 31.9366 0.852251 27.4858 2.5568 22.9404C4.26134 18.3949 6.51039 14.1099 9.30396 10.0852C12.0975 6.06062 15.1278 2.69888 18.3949 2.00272e-05L31.7471 7.88354C29.0956 12.0502 26.9176 16.4063 25.213 20.9517C23.5558 25.4972 22.7273 30.5635 22.7273 36.1506V51.6335H-2.15173e-05ZM35.8665 51.6335V36.2926C35.8665 31.9366 36.7187 27.4858 38.4233 22.9404C40.1278 18.3949 42.3769 14.1099 45.1704 10.0852C47.964 6.06062 50.9943 2.69888 54.2613 2.00272e-05L67.6136 7.88354C64.9621 12.0502 62.7841 16.4063 61.0795 20.9517C59.4223 25.4972 58.5937 30.5635 58.5937 36.1506V51.6335H35.8665Z" fill="#0053D0"/>
</svg>
